                                                                        S      1
,,,13HStempelfasser,48HAutoCAD 2018 - 简体中文 (Simplified Chinese),G      1
62HAutodesk Translation Framework DWG producer (atf_dwg_producer),32,38,G      2
7,99,15,,1.,1,4HINCH,1,0.08,15H20171016.100007,0.000393700787401575,    G      3
10000.,,7Hunknown,11,0,15H20070828.143456;                              G      4
     186       1                       0                        00000000D      1
     186            -211       1       0                               0D      2
     514       2                                                00010000D      3
     514                       2       1                               0D      4
     510       4                                                00010000D      5
     510            -211       1       1                               0D      6
     510       5                                                00010000D      7
     510            -211       1       1                               0D      8
     510       6                                                00010000D      9
     510            -211       1       1                               0D     10
     510       7                                                00010000D     11
     510            -211       1       1                               0D     12
     510       8                                                00010000D     13
     510            -211       1       1                               0D     14
     510       9                                                00010000D     15
     510            -211       1       1                               0D     16
     510      10                                                00010000D     17
     510            -211       1       1                               0D     18
     510      11                                                00010000D     19
     510            -211       1       1                               0D     20
     510      12                                                00010000D     21
     510            -211       1       1                               0D     22
     510      13                                                00010000D     23
     510            -211       1       1                               0D     24
     510      14                                                00010000D     25
     510            -211       1       1                               0D     26
     510      15                                                00010000D     27
     510            -211       1       1                               0D     28
     510      16                                                00010000D     29
     510            -211       1       1                               0D     30
     510      17                                                00010000D     31
     510            -211       1       1                               0D     32
     510      18                                                00010000D     33
     510            -211       1       1                               0D     34
     510      19                                                00010000D     35
     510            -211       1       1                               0D     36
     510      20                                                00010000D     37
     510            -211       1       1                               0D     38
     510      21                                                00010000D     39
     510            -211       1       1                               0D     40
     508      22                                                00010000D     41
     508                       1       1                               0D     42
     508      23                                                00010000D     43
     508                       1       1                               0D     44
     508      24                                                00010000D     45
     508                       1       1                               0D     46
     508      25                                                00010000D     47
     508                       1       1                               0D     48
     508      26                                                00010000D     49
     508                       1       1                               0D     50
     508      27                                                00010000D     51
     508                       1       1                               0D     52
     508      28                                                00010000D     53
     508                       2       1                               0D     54
     508      30                                                00010000D     55
     508                       1       1                               0D     56
     508      31                                                00010000D     57
     508                       1       1                               0D     58
     508      32                                                00010000D     59
     508                       1       1                               0D     60
     508      33                                                00010000D     61
     508                       1       1                               0D     62
     508      34                                                00010000D     63
     508                       1       1                               0D     64
     508      35                                                00010000D     65
     508                       1       1                               0D     66
     508      36                                                00010000D     67
     508                       2       1                               0D     68
     508      38                                                00010000D     69
     508                       2       1                               0D     70
     508      40                                                00010000D     71
     508                       1       1                               0D     72
     508      41                                                00010000D     73
     508                       1       1                               0D     74
     508      42                                                00010000D     75
     508                       2       1                               0D     76
     508      44                                                00010000D     77
     508                       1       1                               0D     78
     126      45                                                00010000D     79
     126       0               4       0                               0D     80
     126      49                                                00010000D     81
     126       0               5       0                               0D     82
     126      54                                                00010000D     83
     126       0               5       0                               0D     84
     126      59                                                00010000D     85
     126       0               5       0                               0D     86
     126      64                                                00010000D     87
     126       0               5       0                               0D     88
     126      69                                                00010000D     89
     126       0               5       0                               0D     90
     126      74                                                00010000D     91
     126       0               3       0                               0D     92
     126      77                                                00010000D     93
     126       0               4       0                               0D     94
     126      81                                                00010000D     95
     126       0               5       0                               0D     96
     126      86                                                00010000D     97
     126       0               4       0                               0D     98
     126      90                                                00010000D     99
     126       0               4       0                               0D    100
     126      94                                                00010000D    101
     126       0               4       0                               0D    102
     126      98                                                00010000D    103
     126       0               3       0                               0D    104
     126     101                                                00010000D    105
     126       0               5       0                               0D    106
     126     106                                                00010000D    107
     126       0               4       0                               0D    108
     126     110                                                00010000D    109
     126       0               5       0                               0D    110
     126     115                                                00010000D    111
     126       0               4       0                               0D    112
     126     119                                                00010000D    113
     126       0               5       0                               0D    114
     126     124                                                00010000D    115
     126       0               4       0                               0D    116
     126     128                                                00010000D    117
     126       0               5       0                               0D    118
     126     133                                                00010000D    119
     126       0               5       0                               0D    120
     126     138                                                00010000D    121
     126       0               5       0                               0D    122
     126     143                                                00010000D    123
     126       0               5       0                               0D    124
     126     148                                                00010000D    125
     126       0               3       0                               0D    126
     126     151                                                00010000D    127
     126       0               5       0                               0D    128
     126     156                                                00010000D    129
     126       0               5       0                               0D    130
     126     161                                                00010000D    131
     126       0               4       0                               0D    132
     126     165                                                00010000D    133
     126       0               5       0                               0D    134
     126     170                                                00010000D    135
     126       0               4       0                               0D    136
     126     174                                                00010000D    137
     126       0               5       0                               0D    138
     126     179                                                00010000D    139
     126       0               5       0                               0D    140
     126     184                                                00010000D    141
     126       0               5       0                               0D    142
     126     189                                                00010000D    143
     126       0               4       0                               0D    144
     126     193                                                00010000D    145
     126       0               4       0                               0D    146
     126     197                                                00010000D    147
     126       0               4       0                               0D    148
     126     201                                                00010000D    149
     126       0               3       0                               0D    150
     126     204                                                00010000D    151
     126       0               5       0                               0D    152
     126     209                                                00010000D    153
     126       0               5       0                               0D    154
     126     214                                                00010000D    155
     126       0               3       0                               0D    156
     126     217                                                00010000D    157
     126       0               4       0                               0D    158
     126     221                                                00010000D    159
     126       0               4       0                               0D    160
     126     225                                                00010000D    161
     126       0               4       0                               0D    162
     126     229                                                00010000D    163
     126       0               4       0                               0D    164
     128     233                                                00010000D    165
     128       0    -211       9       0                               0D    166
     128     242                                                00010000D    167
     128       0    -211       9       0                               0D    168
     128     251                                                00010000D    169
     128       0    -211       9       0                               0D    170
     128     260                                                00010000D    171
     128       0    -211       7       0                               0D    172
     128     267                                                00010000D    173
     128       0    -211       7       0                               0D    174
     128     274                                                00010000D    175
     128       0    -211       7       0                               0D    176
     128     281                                                00010000D    177
     128       0    -211       8       0                               0D    178
     128     289                                                00010000D    179
     128       0    -211       8       0                               0D    180
     128     297                                                00010000D    181
     128       0    -211       8       0                               0D    182
     128     305                                                00010000D    183
     128       0    -211       9       0                               0D    184
     128     314                                                00010000D    185
     128       0    -211       8       0                               0D    186
     128     322                                                00010000D    187
     128       0    -211       7       0                               0D    188
     128     329                                                00010000D    189
     128       0    -211       9       0                               0D    190
     128     338                                                00010000D    191
     128       0    -211       9       0                               0D    192
     128     347                                                00010000D    193
     128       0    -211       8       0                               0D    194
     128     355                                                00010000D    195
     128       0    -211       7       0                               0D    196
     128     362                                                00010000D    197
     128       0    -211       8       0                               0D    198
     128     370                                                00010000D    199
     128       0    -211       9       0                               0D    200
     502     379                                                00010000D    201
     502                      28       1                               0D    202
     504     407                                                00010001D    203
     504                      12       1                               0D    204
     406     419                                                00000000D    205
     406                       1      15                               0D    206
     406     420                       0                        00000000D    207
     406                       1       3                               0D    208
     314     421                                                00000200D    209
     314                       1       0                               0D    210
     314     422                                                00000200D    211
     314                       1       0                               0D    212
186,3,1,0,0,1,205;                                                     1P      1
514,18,5,1,7,1,9,1,11,1,13,1,15,1,17,1,19,1,21,1,23,1,25,1,27,1,       3P      2
29,1,31,1,33,1,35,1,37,1,39,1;                                         3P      3
510,165,1,1,41;                                                        5P      4
510,167,1,1,43;                                                        7P      5
510,169,1,1,45;                                                        9P      6
510,171,1,1,47;                                                       11P      7
510,173,1,1,49;                                                       13P      8
510,175,1,1,51;                                                       15P      9
510,177,1,1,53;                                                       17P     10
510,179,1,1,55;                                                       19P     11
510,181,2,1,57,59;                                                    21P     12
510,183,1,1,61;                                                       23P     13
510,185,1,1,63;                                                       25P     14
510,187,1,1,65;                                                       27P     15
510,189,1,1,67;                                                       29P     16
510,191,1,1,69;                                                       31P     17
510,193,1,1,71;                                                       33P     18
510,195,1,1,73;                                                       35P     19
510,197,1,1,75;                                                       37P     20
510,199,1,1,77;                                                       39P     21
508,4,0,203,1,0,0,0,203,2,1,0,0,203,3,0,0,0,203,4,1,0;                41P     22
508,4,0,203,5,0,0,0,203,6,0,0,0,203,7,0,0,0,203,2,0,0;                43P     23
508,4,0,203,8,0,0,0,203,9,1,0,0,203,10,0,0,0,203,6,1,0;               45P     24
508,4,0,203,3,1,0,0,203,7,1,0,0,203,10,1,0,0,203,11,0,0;              47P     25
508,4,0,203,12,0,0,0,203,13,1,0,0,203,14,1,0,0,203,15,1,0;            49P     26
508,4,0,203,16,1,0,0,203,17,1,0,0,203,18,1,0,0,203,19,1,0;            51P     27
508,8,0,203,20,0,0,0,203,21,1,0,0,203,22,1,0,0,203,18,0,0,0,203,      53P     28
23,1,0,0,203,24,1,0,0,203,25,0,0,0,203,12,1,0;                        53P     29
508,4,0,203,26,0,0,0,203,27,0,0,0,203,20,1,0,0,203,15,0,0;            55P     30
508,4,0,203,28,1,0,0,203,29,1,0,0,203,30,1,0,0,203,16,0,0;            57P     31
508,4,0,203,4,0,0,0,203,11,1,0,0,203,9,0,0,0,203,31,0,0;              59P     32
508,4,0,203,32,0,0,0,203,33,0,0,0,203,26,1,0,0,203,14,0,0;            61P     33
508,4,0,203,25,1,0,0,203,34,0,0,0,203,32,1,0,0,203,13,0,0;            63P     34
508,4,0,203,1,1,0,0,203,31,1,0,0,203,8,1,0,0,203,5,1,0;               65P     35
508,6,0,203,30,0,0,0,203,35,0,0,0,203,36,0,0,0,203,37,0,0,0,203,      67P     36
23,0,0,0,203,17,0,0;                                                  67P     37
508,6,0,203,22,0,0,0,203,38,0,0,0,203,39,0,0,0,203,40,0,0,0,203,      69P     38
28,0,0,0,203,19,0,0;                                                  69P     39
508,4,0,203,33,1,0,0,203,34,1,0,0,203,41,1,0,0,203,27,1,0;            71P     40
508,4,0,203,42,0,0,0,203,35,1,0,0,203,29,0,0,0,203,40,1,0;            73P     41
508,6,0,203,24,0,0,0,203,37,1,0,0,203,43,0,0,0,203,38,1,0,0,203,      75P     42
21,0,0,0,203,41,0,0;                                                  75P     43
508,4,0,203,43,1,0,0,203,36,1,0,0,203,42,1,0,0,203,39,1,0;            77P     44
126,1,1,0,0,1,0,19.3273378185343,19.3273378185343,20.,20.,1.,1.,      79P     45
-348.861269496575,857.719896095146,102.959687945651,                  79P     46
-348.861269496575,857.719896095146,102.287025764185,                  79P     47
19.3273378185343,20.,0.,0.,0.;                                        79P     48
126,1,1,0,0,1,0,-41.6375688390764,-41.6375688390764,                  81P     49
-36.6375688390764,-36.6375688390764,1.,1.,-348.861269496575,          81P     50
857.719896095146,102.959687945651,-348.861269496575,                  81P     51
852.719896095146,102.959687945651,-41.6375688390764,                  81P     52
-36.6375688390764,0.,0.,0.;                                           81P     53
126,1,1,0,0,1,0,-20.0000000000001,-20.0000000000001,                  83P     54
-19.3273378185343,-19.3273378185343,1.,1.,-348.861269496575,          83P     55
852.719896095146,102.287025764185,-348.861269496575,                  83P     56
852.719896095146,102.959687945651,-20.0000000000001,                  83P     57
-19.3273378185343,0.,0.,0.;                                           83P     58
126,1,1,0,0,1,0,26.5542994980636,26.5542994980636,                    85P     59
31.5542994980636,31.5542994980636,1.,1.,-348.861269496575,            85P     60
852.719896095146,102.287025764185,-348.861269496575,                  85P     61
857.719896095146,102.287025764185,26.5542994980636,                   85P     62
31.5542994980636,0.,0.,0.;                                            85P     63
126,1,1,0,0,1,0,-7.89064999999999,-7.89064999999999,                  87P     64
2.10935000000001,2.10935000000001,1.,1.,-338.861269496575,            87P     65
857.719896095146,102.959687945651,-348.861269496575,                  87P     66
857.719896095146,102.959687945651,-7.89064999999999,                  87P     67
2.10935000000001,0.,0.,0.;                                            87P     68
126,1,1,0,0,1,0,36.6375688390764,36.6375688390764,                    89P     69
41.6375688390764,41.6375688390764,1.,1.,-338.861269496575,            89P     70
852.719896095146,102.959687945651,-338.861269496575,                  89P     71
857.719896095146,102.959687945651,36.6375688390764,                   89P     72
41.6375688390764,0.,0.,0.;                                            89P     73
126,1,1,0,0,1,0,-5.,-5.,5.,5.,1.,1.,-348.861269496575,                91P     74
852.719896095146,102.959687945651,-338.861269496575,                  91P     75
852.719896095146,102.959687945651,-5.,5.,0.,0.,0.;                    91P     76
126,1,1,0,0,1,0,-20.,-20.,-19.3273378185343,-19.3273378185343,        93P     77
1.,1.,-338.861269496575,857.719896095146,102.287025764185,            93P     78
-338.861269496575,857.719896095146,102.959687945651,-20.,             93P     79
-19.3273378185343,0.,0.,0.;                                           93P     80
126,1,1,0,0,1,0,-31.5542994980636,-31.5542994980636,                  95P     81
-26.5542994980636,-26.5542994980636,1.,1.,-338.861269496575,          95P     82
857.719896095146,102.287025764185,-338.861269496575,                  95P     83
852.719896095146,102.287025764185,-31.5542994980636,                  95P     84
-26.5542994980636,0.,0.,0.;                                           95P     85
126,1,1,0,0,1,0,19.3273378185344,19.3273378185344,20.,20.,1.,1.,      97P     86
-338.861269496575,852.719896095146,102.959687945651,                  97P     87
-338.861269496575,852.719896095146,102.287025764185,                  97P     88
19.3273378185344,20.,0.,0.,0.;                                        97P     89
126,1,1,0,0,1,0,-5.,-5.,4.99999999999989,4.99999999999989,1.,1.,      99P     90
-348.861269496575,852.719896095146,102.287025764185,                  99P     91
-338.861269496575,852.719896095146,102.287025764185,-5.,              99P     92
4.99999999999989,0.,0.,0.;                                            99P     93
126,1,1,0,0,1,0,-35.0000000000001,-35.0000000000001,23.4374,         101P     94
23.4374,1.,1.,-320.423869496575,857.719896095146,                    101P     95
132.287025764185,-378.861269496575,857.719896095146,                 101P     96
132.287025764185,-35.0000000000001,23.4374,0.,0.,0.;                 101P     97
126,1,1,0,0,1,0,10.,10.,35.,35.,1.,1.,-320.423869496575,             103P     98
857.719896095146,132.287025764185,-320.423869496575,                 103P     99
857.719896095146,107.287025764185,10.,35.,0.,0.,0.;                  103P    100
126,1,1,0,0,1,0,-34.6093499999999,-34.6093499999999,                 105P    101
23.8280500000001,23.8280500000001,1.,1.,-320.423869496575,           105P    102
857.719896095146,107.287025764185,-378.861269496575,                 105P    103
857.719896095146,107.287025764185,-34.6093499999999,                 105P    104
23.8280500000001,0.,0.,0.;                                           105P    105
126,1,1,0,0,1,0,-35.,-35.,-10.0000000000001,-10.0000000000001,       107P    106
1.,1.,-378.861269496575,857.719896095146,107.287025764185,           107P    107
-378.861269496575,857.719896095146,132.287025764185,-35.,            107P    108
-10.0000000000001,0.,0.,0.;                                          107P    109
126,1,1,0,0,1,0,-3.43739999999997,-3.43739999999997,                 109P    110
74.9999999999999,74.9999999999999,1.,1.,-388.861269496575,           109P    111
847.719896095146,102.287025764185,-310.423869496575,                 109P    112
847.719896095146,102.287025764185,-3.43739999999997,                 109P    113
74.9999999999999,0.,0.,0.;                                           109P    114
126,1,1,0,0,1,0,-20.,-20.,9.99999999999994,9.99999999999994,1.,      111P    115
1.,-310.423869496575,847.719896095146,102.287025764185,              111P    116
-310.423869496575,847.719896095146,132.287025764185,-20.,            111P    117
9.99999999999994,0.,0.,0.;                                           111P    118
126,1,1,0,0,1,0,-84.9999999999999,-84.9999999999999,                 113P    119
-6.56260000000003,-6.56260000000003,1.,1.,-310.423869496575,         113P    120
847.719896095146,132.287025764185,-388.861269496575,                 113P    121
847.719896095146,132.287025764185,-84.9999999999999,                 113P    122
-6.56260000000003,0.,0.,0.;                                          113P    123
126,1,1,0,0,1,0,-9.99999999999993,-9.99999999999993,20.,20.,1.,      115P    124
1.,-388.861269496575,847.719896095146,132.287025764185,              115P    125
-388.861269496575,847.719896095146,102.287025764185,                 115P    126
-9.99999999999993,20.,0.,0.,0.;                                      115P    127
126,1,1,0,0,1,0,-87.8801344013768,-87.8801344013768,                 117P    128
-37.8801344013769,-37.8801344013769,1.,1.,-378.861269496575,         117P    129
907.719896095146,132.287025764185,-378.861269496575,                 117P    130
857.719896095146,132.287025764185,-87.8801344013768,                 117P    131
-37.8801344013769,0.,0.,0.;                                          117P    132
126,1,1,0,0,1,0,3.43740000000003,3.43740000000003,                   119P    133
13.4373999999999,13.4373999999999,1.,1.,-378.861269496575,           119P    134
907.719896095146,132.287025764185,-388.861269496575,                 119P    135
907.719896095146,132.287025764185,3.43740000000003,                  119P    136
13.4373999999999,0.,0.,0.;                                           119P    137
126,1,1,0,0,1,0,-68.3385957193516,-68.3385957193516,                 121P    138
-8.3385957193517,-8.3385957193517,1.,1.,-388.861269496575,           121P    139
907.719896095146,132.287025764185,-388.861269496575,                 121P    140
847.719896095146,132.287025764185,-68.3385957193516,                 121P    141
-8.3385957193517,0.,0.,0.;                                           121P    142
126,1,1,0,0,1,0,8.3385957193517,8.3385957193517,                     123P    143
68.3385957193516,68.3385957193516,1.,1.,-310.423869496575,           123P    144
847.719896095146,132.287025764185,-310.423869496575,                 123P    145
907.719896095146,132.287025764185,8.3385957193517,                   123P    146
68.3385957193516,0.,0.,0.;                                           123P    147
126,1,1,0,0,1,0,-65.,-65.,-55.,-55.,1.,1.,-310.423869496575,         125P    148
907.719896095146,132.287025764185,-320.423869496575,                 125P    149
907.719896095146,132.287025764185,-65.,-55.,0.,0.,0.;                125P    150
126,1,1,0,0,1,0,37.8801344013769,37.8801344013769,                   127P    151
87.8801344013768,87.8801344013768,1.,1.,-320.423869496575,           127P    152
857.719896095146,132.287025764185,-320.423869496575,                 127P    153
907.719896095146,132.287025764185,37.8801344013769,                  127P    154
87.8801344013768,0.,0.,0.;                                           127P    155
126,1,1,0,0,1,0,-29.1375688390763,-29.1375688390763,                 129P    156
20.8624311609236,20.8624311609236,1.,1.,-378.861269496575,           129P    157
907.719896095146,107.287025764185,-378.861269496575,                 129P    158
857.719896095146,107.287025764185,-29.1375688390763,                 129P    159
20.8624311609236,0.,0.,0.;                                           129P    160
126,1,1,0,0,1,0,6.25000000000006,6.25000000000006,31.25,31.25,       131P    161
1.,1.,-378.861269496575,907.719896095146,132.287025764185,           131P    162
-378.861269496575,907.719896095146,107.287025764185,                 131P    163
6.25000000000006,31.25,0.,0.,0.;                                     131P    164
126,1,1,0,0,1,0,34.5811612816523,34.5811612816523,                   133P    165
109.581161281652,109.581161281652,1.,1.,-388.861269496575,           133P    166
847.719896095146,102.287025764185,-388.861269496575,                 133P    167
922.719896095146,102.287025764185,34.5811612816523,                  133P    168
109.581161281652,0.,0.,0.;                                           133P    169
126,1,1,0,0,1,0,-73.4374,-73.4374,4.99999999999994,                  135P    170
4.99999999999994,1.,1.,-388.861269496575,922.719896095146,           135P    171
102.287025764185,-310.423869496575,922.719896095146,                 135P    172
102.287025764185,-73.4374,4.99999999999994,0.,0.,0.;                 135P    173
126,1,1,0,0,1,0,-109.581161281652,-109.581161281652,                 137P    174
-34.5811612816523,-34.5811612816523,1.,1.,-310.423869496575,         137P    175
922.719896095146,102.287025764185,-310.423869496575,                 137P    176
847.719896095146,102.287025764185,-109.581161281652,                 137P    177
-34.5811612816523,0.,0.,0.;                                          137P    178
126,1,1,0,0,1,0,33.6719499999999,33.6719499999999,                   139P    179
43.6719499999998,43.6719499999998,1.,1.,-348.861269496575,           139P    180
857.719896095146,102.287025764185,-338.861269496575,                 139P    181
857.719896095146,102.287025764185,33.6719499999999,                  139P    182
43.6719499999998,0.,0.,0.;                                           139P    183
126,1,1,0,0,1,0,-29.1375688390763,-29.1375688390763,                 141P    184
20.8624311609236,20.8624311609236,1.,1.,-320.423869496575,           141P    185
907.719896095146,107.287025764185,-320.423869496575,                 141P    186
857.719896095146,107.287025764185,-29.1375688390763,                 141P    187
20.8624311609236,0.,0.,0.;                                           141P    188
126,1,1,0,0,1,0,-26.7187000000001,-26.7187000000001,31.7187,         143P    189
31.7187,1.,1.,-378.861269496575,907.719896095146,                    143P    190
107.287025764185,-320.423869496575,907.719896095146,                 143P    191
107.287025764185,-26.7187000000001,31.7187,0.,0.,0.;                 143P    192
126,1,1,0,0,1,0,-31.25,-31.25,-6.25000000000006,                     145P    193
-6.25000000000006,1.,1.,-320.423869496575,907.719896095146,          145P    194
107.287025764185,-320.423869496575,907.719896095146,                 145P    195
132.287025764185,-31.25,-6.25000000000006,0.,0.,0.;                  145P    196
126,1,1,0,0,1,0,-34.9999999999999,-34.9999999999999,15.,15.,1.,      147P    197
1.,-310.423869496575,922.719896095146,152.287025764185,              147P    198
-310.423869496575,922.719896095146,102.287025764185,                 147P    199
-34.9999999999999,15.,0.,0.,0.;                                      147P    200
126,1,1,0,0,1,0,2.5,2.5,10.,10.,1.,1.,-310.423869496575,             149P    201
915.219896095146,152.287025764185,-310.423869496575,                 149P    202
922.719896095146,152.287025764185,2.5,10.,0.,0.,0.;                  149P    203
126,1,1,0,0,1,0,13.5958164321841,13.5958164321841,                   151P    204
34.9558257954779,34.9558257954779,1.,1.,-310.423869496575,           151P    205
907.719896095146,132.287025764185,-310.423869496575,                 151P    206
915.219896095146,152.287025764185,13.5958164321841,                  151P    207
34.9558257954779,0.,0.,0.;                                           151P    208
126,1,1,0,0,1,0,-34.9558257954779,-34.9558257954779,                 153P    209
-13.5958164321841,-13.5958164321841,1.,1.,-388.861269496575,         153P    210
915.219896095146,152.287025764185,-388.861269496575,                 153P    211
907.719896095146,132.287025764185,-34.9558257954779,                 153P    212
-13.5958164321841,0.,0.,0.;                                          153P    213
126,1,1,0,0,1,0,-5.,-5.,2.5,2.5,1.,1.,-388.861269496575,             155P    214
922.719896095146,152.287025764185,-388.861269496575,                 155P    215
915.219896095146,152.287025764185,-5.,2.5,0.,0.,0.;                  155P    216
126,1,1,0,0,1,0,-15.,-15.,34.9999999999999,34.9999999999999,1.,      157P    217
1.,-388.861269496575,922.719896095146,102.287025764185,              157P    218
-388.861269496575,922.719896095146,152.287025764185,-15.,            157P    219
34.9999999999999,0.,0.,0.;                                           157P    220
126,1,1,0,0,1,0,-55.,-55.,3.43740000000003,3.43740000000003,1.,      159P    221
1.,-320.423869496575,907.719896095146,132.287025764185,              159P    222
-378.861269496575,907.719896095146,132.287025764185,-55.,            159P    223
3.43740000000003,0.,0.,0.;                                           159P    224
126,1,1,0,0,1,0,-85.,-85.,-6.56260000000009,-6.56260000000009,       161P    225
1.,1.,-310.423869496575,922.719896095146,152.287025764185,           161P    226
-388.861269496575,922.719896095146,152.287025764185,-85.,            161P    227
-6.56260000000009,0.,0.,0.;                                          161P    228
126,1,1,0,0,1,0,-27.1874,-27.1874,51.2499999999999,                  163P    229
51.2499999999999,1.,1.,-388.861269496575,915.219896095146,           163P    230
152.287025764185,-310.423869496575,915.219896095146,                 163P    231
152.287025764185,-27.1874,51.2499999999999,0.,0.,0.;                 163P    232
128,1,1,1,1,0,0,1,0,0,36.6365688390763,36.6365688390763,             165P    233
41.6385688390764,41.6385688390764,14.3263378185343,                  165P    234
14.3263378185343,15.0010000000001,15.0010000000001,1.,1.,1.,1.,      165P    235
-348.861269496575,857.720896095146,102.960687945651,                 165P    236
-348.861269496575,852.718896095146,102.960687945651,                 165P    237
-348.861269496575,857.720896095146,102.286025764185,                 165P    238
-348.861269496575,852.718896095146,102.286025764185,                 165P    239
36.6365688390763,41.6385688390764,14.3263378185343,                  165P    240
15.0010000000001;                                                    165P    241
128,1,1,1,1,0,0,1,0,0,-5.00100000000006,-5.00100000000006,           167P    242
5.00099999999999,5.00099999999999,36.6365688390763,                  167P    243
36.6365688390763,41.6385688390764,41.6385688390764,1.,1.,1.,1.,      167P    244
-338.860269496575,852.718896095146,102.959687945651,                 167P    245
-348.862269496575,852.718896095146,102.959687945651,                 167P    246
-338.860269496575,857.720896095146,102.959687945651,                 167P    247
-348.862269496575,857.720896095146,102.959687945651,                 167P    248
-5.00100000000006,5.00099999999999,36.6365688390763,                 167P    249
41.6385688390764;                                                    167P    250
128,1,1,1,1,0,0,1,0,0,36.6365688390763,36.6365688390763,             169P    251
41.6385688390764,41.6385688390764,-15.0010000000001,                 169P    252
-15.0010000000001,-14.3263378185344,-14.3263378185344,1.,1.,1.,      169P    253
1.,-338.861269496575,857.720896095146,102.286025764185,              169P    254
-338.861269496575,852.718896095146,102.286025764185,                 169P    255
-338.861269496575,857.720896095146,102.960687945651,                 169P    256
-338.861269496575,852.718896095146,102.960687945651,                 169P    257
36.6365688390763,41.6385688390764,-15.0010000000001,                 169P    258
-14.3263378185344;                                                   169P    259
128,1,1,1,1,0,0,1,0,0,-5.001,-5.001,5.001,5.001,                     171P    260
14.3263378185343,14.3263378185343,15.001,15.001,1.,1.,1.,1.,         171P    261
-348.862269496575,852.719896095146,102.960687945651,                 171P    262
-338.860269496575,852.719896095146,102.960687945651,                 171P    263
-348.862269496575,852.719896095146,102.286025764185,                 171P    264
-338.860269496575,852.719896095146,102.286025764185,-5.001,          171P    265
5.001,14.3263378185343,15.001;                                       171P    266
128,1,1,1,1,0,0,1,0,0,-35.0010000000001,-35.0010000000001,           173P    267
23.4384000000001,23.4384000000001,-15.001,-15.001,10.001,10.001,     173P    268
1.,1.,1.,1.,-378.862269496575,857.719896095146,132.288025764185,     173P    269
-320.422869496575,857.719896095146,132.288025764185,                 173P    270
-378.862269496575,857.719896095146,107.286025764185,                 173P    271
-320.422869496575,857.719896095146,107.286025764185,                 173P    272
-35.0010000000001,23.4384000000001,-15.001,10.001;                   173P    273
128,1,1,1,1,0,0,1,0,0,-45.001,-45.001,33.4384,33.4384,-12.501,       175P    274
-12.501,17.501,17.501,1.,1.,1.,1.,-310.422869496575,                 175P    275
847.719896095146,132.288025764185,-388.862269496575,                 175P    276
847.719896095146,132.288025764185,-310.422869496575,                 175P    277
847.719896095146,102.286025764185,-388.862269496575,                 175P    278
847.719896095146,102.286025764185,-45.001,33.4384,-12.501,           175P    279
17.501;                                                              175P    280
128,1,1,1,1,0,0,1,0,0,-33.4383999999999,-33.4383999999999,           177P    281
45.001,45.001,-38.4030537605508,-38.4030537605508,                   177P    282
21.5989462394491,21.5989462394491,1.,1.,1.,1.,-310.422869496575,     177P    283
907.720896095146,132.287025764185,-388.862269496575,                 177P    284
907.720896095146,132.287025764185,-310.422869496575,                 177P    285
847.718896095146,132.287025764185,-388.862269496575,                 177P    286
847.718896095146,132.287025764185,-33.4383999999999,45.001,          177P    287
-38.4030537605508,21.5989462394491;                                  177P    288
128,1,1,1,1,0,0,1,0,0,-50.001,-50.001,-24.9990000000001,             179P    289
-24.9990000000001,-137.359215042203,-137.359215042203,               179P    290
-87.3572150422029,-87.3572150422029,1.,1.,1.,1.,                     179P    291
-378.861269496575,907.720896095146,107.286025764185,                 179P    292
-378.861269496575,907.720896095146,132.288025764185,                 179P    293
-378.861269496575,857.718896095146,107.286025764185,                 179P    294
-378.861269496575,857.718896095146,132.288025764185,-50.001,         179P    295
-24.9990000000001,-137.359215042203,-87.3572150422029;               179P    296
128,1,1,1,1,0,0,1,0,0,43.6072150422029,43.6072150422029,             181P    297
118.609215042203,118.609215042203,-105.001,-105.001,                 181P    298
-26.5615999999999,-26.5615999999999,1.,1.,1.,1.,                     181P    299
-310.422869496575,922.720896095146,102.287025764185,                 181P    300
-310.422869496575,847.718896095146,102.287025764185,                 181P    301
-388.862269496575,922.720896095146,102.287025764185,                 181P    302
-388.862269496575,847.718896095146,102.287025764185,                 181P    303
43.6072150422029,118.609215042203,-105.001,-26.5615999999999;        181P    304
128,1,1,1,1,0,0,1,0,0,-98.2761376781525,-98.2761376781525,           183P    305
-48.2741376781526,-48.2741376781526,-18.4384000000001,               183P    306
-18.4384000000001,40.0009999999999,40.0009999999999,1.,1.,1.,1.,     183P    307
-378.862269496575,907.720896095146,107.287025764185,                 183P    308
-378.862269496575,857.718896095146,107.287025764185,                 183P    309
-320.422869496575,907.720896095146,107.287025764185,                 183P    310
-320.422869496575,857.718896095146,107.287025764185,                 183P    311
-98.2761376781525,-48.2741376781526,-18.4384000000001,               183P    312
40.0009999999999;                                                    183P    313
128,1,1,1,1,0,0,1,0,0,24.9990000000001,24.9990000000001,50.001,      185P    314
50.001,-137.359215042203,-137.359215042203,-87.3572150422029,        185P    315
-87.3572150422029,1.,1.,1.,1.,-320.423869496575,                     185P    316
907.720896095146,132.288025764185,-320.423869496575,                 185P    317
907.720896095146,107.286025764185,-320.423869496575,                 185P    318
857.718896095146,132.288025764185,-320.423869496574,                 185P    319
857.718896095146,107.286025764185,24.9990000000001,50.001,           185P    320
-137.359215042203,-87.3572150422029;                                 185P    321
128,1,1,1,1,0,0,1,0,0,0.780299999999987,0.780299999999987,           187P    322
10.7823,10.7823,24.3263378185342,24.3263378185342,25.001,25.001,     187P    323
1.,1.,1.,1.,-338.860269496575,857.719896095146,102.960687945651,     187P    324
-348.862269496575,857.719896095146,102.960687945651,                 187P    325
-338.860269496575,857.719896095146,102.286025764185,                 187P    326
-348.862269496575,857.719896095146,102.286025764185,                 187P    327
0.780299999999987,10.7823,24.3263378185342,25.001;                   187P    328
128,1,1,1,1,0,0,1,0,0,-113.276137678153,-113.276137678153,           189P    329
-38.2741376781526,-38.2741376781526,-35.0009999999999,               189P    330
-35.0009999999999,15.0010000000001,15.0010000000001,1.,1.,1.,1.,     189P    331
-310.423869496575,922.720896095146,152.288025764185,                 189P    332
-310.423869496575,847.718896095146,152.288025764185,                 189P    333
-310.423869496575,922.720896095146,102.286025764185,                 189P    334
-310.423869496575,847.718896095146,102.286025764185,                 189P    335
-113.276137678153,-38.2741376781526,-35.0009999999999,               189P    336
15.0010000000001;                                                    189P    337
128,1,1,1,1,0,0,1,0,0,-113.276137678153,-113.276137678153,           191P    338
-38.2741376781526,-38.2741376781526,-35.0009999999999,               191P    339
-35.0009999999999,15.0010000000001,15.0010000000001,1.,1.,1.,1.,     191P    340
-388.861269496575,847.718896095146,152.288025764185,                 191P    341
-388.861269496575,922.720896095146,152.288025764185,                 191P    342
-388.861269496574,847.718896095146,102.286025764185,                 191P    343
-388.861269496575,922.720896095146,102.286025764185,                 191P    344
-113.276137678153,-38.2741376781526,-35.0009999999999,               191P    345
15.0010000000001;                                                    191P    346
128,1,1,1,1,0,0,1,0,0,-35.0010000000001,-35.0010000000001,           193P    347
23.4384,23.4384,-12.5010000000004,-12.5010000000004,12.501,          193P    348
12.501,1.,1.,1.,1.,-320.422869496575,907.719896095146,               193P    349
132.288025764185,-378.862269496575,907.719896095146,                 193P    350
132.288025764185,-320.422869496575,907.719896095146,                 193P    351
107.286025764185,-378.862269496575,907.719896095146,                 193P    352
107.286025764185,-35.0010000000001,23.4384,-12.5010000000004,        193P    353
12.501;                                                              193P    354
128,1,1,1,1,0,0,1,0,0,-45.001,-45.001,33.4384,33.4384,-35.001,       195P    355
-35.001,15.001,15.001,1.,1.,1.,1.,-388.862269496575,                 195P    356
922.719896095146,152.288025764185,-310.422869496575,                 195P    357
922.719896095146,152.288025764185,-388.862269496575,                 195P    358
922.719896095146,102.286025764185,-310.422869496575,                 195P    359
922.719896095146,102.286025764185,-45.001,33.4384,-35.001,           195P    360
15.001;                                                              195P    361
128,1,1,1,1,0,0,1,0,0,-21.3610093632938,-21.3610093632938,           197P    362
0.00100000000011491,0.00100000000011491,6.56160000000008,            197P    363
6.56160000000008,85.001,85.001,1.,1.,1.,1.,-388.862269496575,        197P    364
915.220247218588,152.287962093363,-388.862269496575,                 197P    365
907.719544971704,132.286089435007,-310.422869496575,                 197P    366
915.220247218588,152.287962093363,-310.422869496575,                 197P    367
907.719544971704,132.286089435007,-21.3610093632938,                 197P    368
0.00100000000011491,6.56160000000008,85.001;                         197P    369
128,1,1,1,1,0,0,1,0,0,-60.9384000000001,-60.9384000000001,           199P    370
17.5009999999999,17.5009999999999,-113.276137678153,                 199P    371
-113.276137678153,-105.774137678153,-105.774137678153,1.,1.,1.,      199P    372
1.,-310.422869496575,922.720896095146,152.287025764185,              199P    373
-388.862269496575,922.720896095146,152.287025764185,                 199P    374
-310.422869496575,915.218896095146,152.287025764185,                 199P    375
-388.862269496575,915.218896095146,152.287025764185,                 199P    376
-60.9384000000001,17.5009999999999,-113.276137678153,                199P    377
-105.774137678153;                                                   199P    378
502,28,-348.861269496575,857.719896095146,102.959687945651,          201P    379
-348.861269496575,857.719896095146,102.287025764185,                 201P    380
-348.861269496575,852.719896095146,102.959687945651,                 201P    381
-348.861269496575,852.719896095146,102.287025764185,                 201P    382
-338.861269496575,857.719896095146,102.959687945651,                 201P    383
-338.861269496575,852.719896095146,102.959687945651,                 201P    384
-338.861269496575,857.719896095146,102.287025764185,                 201P    385
-338.861269496575,852.719896095146,102.287025764185,                 201P    386
-320.423869496575,857.719896095146,132.287025764185,                 201P    387
-378.861269496575,857.719896095146,132.287025764185,                 201P    388
-320.423869496575,857.719896095146,107.287025764185,                 201P    389
-378.861269496575,857.719896095146,107.287025764185,                 201P    390
-388.861269496575,847.719896095146,102.287025764185,                 201P    391
-310.423869496575,847.719896095146,102.287025764185,                 201P    392
-310.423869496575,847.719896095146,132.287025764185,                 201P    393
-388.861269496575,847.719896095146,132.287025764185,                 201P    394
-378.861269496575,907.719896095146,132.287025764185,                 201P    395
-388.861269496575,907.719896095146,132.287025764185,                 201P    396
-310.423869496575,907.719896095146,132.287025764185,                 201P    397
-320.423869496575,907.719896095146,132.287025764185,                 201P    398
-378.861269496575,907.719896095146,107.287025764185,                 201P    399
-388.861269496575,922.719896095146,102.287025764185,                 201P    400
-310.423869496575,922.719896095146,102.287025764185,                 201P    401
-320.423869496575,907.719896095146,107.287025764185,                 201P    402
-310.423869496575,922.719896095146,152.287025764185,                 201P    403
-310.423869496575,915.219896095146,152.287025764185,                 201P    404
-388.861269496575,915.219896095146,152.287025764185,                 201P    405
-388.861269496575,922.719896095146,152.287025764185;                 201P    406
504,43,79,201,1,201,2,81,201,1,201,3,83,201,4,201,3,85,201,4,        203P    407
201,2,87,201,5,201,1,89,201,6,201,5,91,201,3,201,6,93,201,7,201,     203P    408
5,95,201,7,201,8,97,201,6,201,8,99,201,4,201,8,101,201,9,201,10,     203P    409
103,201,9,201,11,105,201,11,201,12,107,201,12,201,10,109,201,13,     203P    410
201,14,111,201,14,201,15,113,201,15,201,16,115,201,16,201,13,        203P    411
117,201,17,201,10,119,201,17,201,18,121,201,18,201,16,123,201,       203P    412
15,201,19,125,201,19,201,20,127,201,9,201,20,129,201,21,201,12,      203P    413
131,201,17,201,21,133,201,13,201,22,135,201,22,201,23,137,201,       203P    414
23,201,14,139,201,2,201,7,141,201,24,201,11,143,201,21,201,24,       203P    415
145,201,24,201,20,147,201,25,201,23,149,201,26,201,25,151,201,       203P    416
19,201,26,153,201,27,201,18,155,201,28,201,27,157,201,22,201,28,     203P    417
159,201,20,201,17,161,201,25,201,28,163,201,27,201,26;               203P    418
406,1,2H51;                                                          205P    419
406,2,0,1H0;                                                         207P    420
314,90.5882352941177,94.1176470588235,100.,;                         209P    421
314,59.6078431372549,59.6078431372549,59.6078431372549,;             211P    422
S      1G      4D    212P    422                                        T      1
